<svg width="32" height="32" viewBox="0 0 32 32" fill="none" xmlns="http://www.w3.org/2000/svg">
<path fill-rule="evenodd" clip-rule="evenodd" d="M4.73932 0H0V4.73932H1.58536V27.2607H0V32H4.73932V30.4174H27.2607V32H32V27.2607H30.3708V4.73932H32V0H27.2607V1.58536H4.73932V0ZM28.7864 3.21547V1.58536H28.7845V1.52385H30.4761V3.21547H28.7864ZM27.2607 3.10921H4.74025V4.74025H3.10921V27.2607H4.73932V27.2625L4.74025 28.8935H27.2607V27.2607H28.8469V4.74025H27.2625L27.2607 4.73932V3.10921ZM28.7845 30.4174H28.7864V28.7864H30.3708V28.7845H30.4761V30.4761H28.7845V30.4174ZM1.58536 28.7845V28.7864H3.21547V30.4761H1.52385V28.7845H1.58536ZM1.52385 3.21547V1.52385H3.21547V3.21547H1.52385ZM16.0533 15.2317C16.2127 14.5057 16.4429 13.1952 16.5314 12.3984H16.6554C16.6023 13.4254 16.5669 14.9661 16.5669 15.9577V22.7578H18.5148V10.1848H15.77L14.5835 15.8692C14.495 16.4004 14.3887 17.0911 14.3533 17.4629H14.2471C14.2116 17.0911 14.1054 16.4004 14.0169 15.8692L12.8304 10.1848H10.0856V22.7578H12.0335V15.9577C12.0335 14.9661 11.9981 13.4254 11.945 12.3984H12.0689C12.1752 13.1952 12.3877 14.5057 12.5471 15.2317L13.4502 19.6942H15.1502L16.0533 15.2317ZM25.3213 16.7886H20.1593V15.5704C20.9129 15.0439 21.8421 14.2592 22.5958 13.5159C23.2565 12.8552 23.5249 12.339 23.5249 11.6989C23.5249 11.1001 23.2152 10.7697 22.6887 10.7697C22.1415 10.7697 21.8215 11.1311 21.8215 11.7402C21.8215 11.8951 21.8421 12.0809 21.8731 12.2461L20.2316 12.0706C20.2006 11.9054 20.1903 11.7918 20.1903 11.6679C20.1903 10.3361 21.1814 9.4586 22.7196 9.4586C24.3199 9.4586 25.1871 10.2432 25.1871 11.637C25.1871 12.4835 24.8361 13.1856 24.0411 13.9805C23.5043 14.507 22.9364 14.9716 22.2034 15.4672H25.3213V16.7886Z" fill="#F77E3E"/>
</svg>
