<svg width="32" height="33" viewBox="0 0 32 33" fill="none" xmlns="http://www.w3.org/2000/svg">
<path fill-rule="evenodd" clip-rule="evenodd" d="M28.7144 3H3.25V12.0159H1.67659V15.6508H0V26.4712H2.20238V28.4015H3.72619V26.4712H28.2381V28.4015H29.7619V26.4712H32V15.6508H30.2865V12.0159H28.7144V3ZM3.25 13.5397V13.5758H28.6783C28.6982 13.5758 28.7144 13.5596 28.7144 13.5397H28.7627V14.6157C28.7627 15.168 28.3149 15.6157 27.7627 15.6157H4.2004C3.64811 15.6157 3.2004 15.168 3.2004 14.6157V13.5893C3.2004 13.5619 3.2226 13.5397 3.25 13.5397ZM26.6766 12.0159C26.9605 12.0159 27.1906 11.7857 27.1906 11.5018V5.52381C27.1906 4.97152 26.7429 4.52381 26.1906 4.52381H5.77381C5.22153 4.52381 4.77381 4.97152 4.77381 5.52381V11.4841C4.77381 11.7778 5.01188 12.0159 5.30556 12.0159C5.59923 12.0159 5.8373 11.7778 5.8373 11.4841V7.89286H15.2598V11.2757C15.2598 11.6845 15.5911 12.0159 15.9999 12.0159C16.4087 12.0159 16.7401 11.6845 16.7401 11.2757V7.89286H26.1625V11.5018C26.1625 11.7857 26.3927 12.0159 26.6766 12.0159ZM23.6387 12.0159C24.191 12.0159 24.6387 11.5682 24.6387 11.0159V10.4167C24.6387 9.86438 24.191 9.41667 23.6387 9.41667H19.2639C18.7116 9.41667 18.2639 9.86438 18.2639 10.4167V11.0159C18.2639 11.5682 18.7116 12.0159 19.2639 12.0159H23.6387ZM7.36111 11.0159C7.36111 11.5682 7.80883 12.0159 8.36111 12.0159H12.7359C13.2882 12.0159 13.7359 11.5682 13.7359 11.0159V10.4167C13.7359 9.86438 13.2882 9.41667 12.7359 9.41667H8.36111C7.80883 9.41667 7.36111 9.86438 7.36111 10.4167V11.0159ZM2.52381 17.1746C1.97152 17.1746 1.52381 17.6223 1.52381 18.1746V23.9474C1.52381 24.4997 1.97152 24.9474 2.52381 24.9474H29.4762C30.0285 24.9474 30.4762 24.4997 30.4762 23.9474V18.1746C30.4762 17.6223 30.0285 17.1746 29.4762 17.1746H2.52381Z" fill="#F77E3E"/>
</svg>
