<svg width="500" height="200" viewBox="0 0 500 200" fill="none" xmlns="http://www.w3.org/2000/svg">
<path d="M447.354 181.327V126.769H482.965V134.289H455.98V149.846H479.573V157.292H455.98V173.807H483.333V181.327H447.354Z" fill="black"/>
<path d="M417.852 182.065C413.33 182.065 409.398 181.279 406.055 179.706C402.762 178.133 400.01 176.019 397.798 173.365C395.586 170.662 393.939 167.664 392.858 164.37C391.777 161.028 391.236 157.612 391.236 154.122C391.236 150.632 391.777 147.216 392.858 143.874C393.939 140.532 395.586 137.534 397.798 134.879C400.059 132.176 402.86 130.038 406.203 128.465C409.594 126.843 413.551 126.032 418.073 126.032C421.612 126.032 424.635 126.474 427.141 127.359C429.648 128.244 431.762 129.399 433.482 130.824C435.202 132.201 436.578 133.675 437.611 135.248C438.643 136.821 439.429 138.32 439.97 139.745C440.511 141.171 440.879 142.326 441.076 143.211C441.272 144.095 441.371 144.538 441.371 144.538H432.745C432.745 144.538 432.646 144.169 432.45 143.432C432.253 142.694 431.86 141.81 431.27 140.778C430.729 139.696 429.918 138.615 428.837 137.534C427.756 136.452 426.33 135.567 424.561 134.879C422.841 134.142 420.702 133.773 418.147 133.773C415.099 133.773 412.42 134.363 410.11 135.543C407.849 136.673 405.957 138.197 404.433 140.114C402.959 142.031 401.853 144.194 401.115 146.602C400.378 149.01 400.01 151.468 400.01 153.975C400.01 156.531 400.378 159.037 401.115 161.495C401.902 163.903 403.032 166.091 404.507 168.057C406.031 169.974 407.898 171.497 410.11 172.628C412.371 173.758 415.001 174.324 417.999 174.324C422.668 174.324 426.379 172.997 429.132 170.342C431.884 167.688 433.408 164.1 433.703 159.578H418.147V152.648H442.034V156.555C442.034 162.159 440.953 166.853 438.79 170.637C436.677 174.422 433.777 177.273 430.09 179.19C426.453 181.107 422.374 182.065 417.852 182.065Z" fill="black"/>
<path d="M341.913 181.327L360.935 126.769H371.994L391.089 181.327H382.021L377.818 169.089H355.184L350.981 181.327H341.913ZM357.764 161.421H375.238L366.538 135.985L357.764 161.421Z" fill="black"/>
<path d="M301.814 181.327V126.769H310.44V173.807H338.014V181.327H301.814Z" fill="black"/>
<path d="M259.06 181.327V126.769H267.687V173.807H295.261V181.327H259.06Z" fill="black"/>
<path d="M242.947 181.327V126.769H251.573V181.327H242.947Z" fill="black"/>
<path d="M208.977 181.327L189.955 126.769H199.024L214.58 172.111L230.063 126.769H239.132L220.036 181.327H208.977Z" fill="black"/>
<path d="M120.231 181.327V126.769H131.659L146.478 157.808L161.518 126.769H172.799V181.327H164.32V139.597L150.533 167.761H142.497L128.71 139.45V181.327H120.231Z" fill="black"/>
<path d="M75.5454 181.327V162.158L56.4499 126.769H65.887L79.8216 153.385L93.8298 126.769H103.267L84.0978 162.158V181.327H75.5454Z" fill="black"/>
<path d="M16.6665 181.327V126.769H39.0797C42.5695 126.769 45.5432 127.408 48.0008 128.686C50.5075 129.915 52.3998 131.561 53.6778 133.625C55.0049 135.69 55.6684 137.951 55.6684 140.408C55.6684 143.013 55.1769 145.152 54.1939 146.823C53.26 148.445 52.1787 149.698 50.9499 150.583C49.7211 151.468 48.6643 152.082 47.7796 152.426V152.868C49.0084 153.213 50.4092 153.876 51.982 154.859C53.5549 155.793 54.9066 157.169 56.0371 158.988C57.2167 160.757 57.8065 163.067 57.8065 165.918C57.8065 168.474 57.1921 170.932 55.9633 173.291C54.7345 175.65 52.7685 177.592 50.0651 179.116C47.4109 180.59 43.9212 181.327 39.5958 181.327H16.6665ZM38.2687 134.142H25.2926V149.919H38.2687C41.4144 149.919 43.7 149.108 45.1254 147.486C46.5508 145.864 47.2635 144.046 47.2635 142.03C47.2635 140.015 46.5508 138.197 45.1254 136.575C43.7 134.953 41.4144 134.142 38.2687 134.142ZM38.9323 156.702H25.2926V173.955H38.9323C41.3407 173.955 43.3068 173.561 44.8305 172.775C46.3542 171.939 47.4601 170.858 48.1482 169.531C48.8363 168.204 49.1804 166.803 49.1804 165.328C49.1804 163.854 48.8363 162.478 48.1482 161.2C47.4601 159.873 46.3542 158.791 44.8305 157.956C43.3068 157.12 41.3407 156.702 38.9323 156.702Z" fill="black"/>
<path d="M432.994 99.1739C428.236 99.1739 424.168 98.5878 420.789 97.4156C417.41 96.2434 414.583 94.7264 412.308 92.8647C410.101 91.003 408.343 89.0378 407.033 86.9693C405.723 84.8317 404.723 82.8321 404.034 80.9704C403.413 79.1087 402.999 77.5917 402.792 76.4195C402.586 75.2473 402.482 74.6612 402.482 74.6612H416.755C416.755 74.6612 416.824 75.0749 416.962 75.9024C417.169 76.7298 417.583 77.7986 418.203 79.1087C418.824 80.3498 419.72 81.591 420.893 82.8321C422.134 84.0733 423.754 85.142 425.754 86.0384C427.822 86.8658 430.373 87.2796 433.407 87.2796C438.096 87.2796 441.647 86.2453 444.061 84.1767C446.543 82.0392 447.784 79.419 447.784 76.3161C447.784 73.6959 446.853 71.6273 444.991 70.1103C443.13 68.5244 440.372 67.3522 436.717 66.5938L426.581 64.4218C422.651 63.5943 418.962 62.3532 415.514 60.6983C412.136 59.0434 409.412 56.8025 407.343 53.9754C405.275 51.1484 404.24 47.5284 404.24 43.1154C404.24 38.4956 405.378 34.4963 407.654 31.1176C409.998 27.7389 413.204 25.1532 417.272 23.3605C421.341 21.4987 426.098 20.5679 431.546 20.5679C436.717 20.5679 440.992 21.3264 444.371 22.8433C447.749 24.3603 450.439 26.222 452.438 28.4285C454.507 30.635 456.024 32.8414 456.989 35.0479C457.954 37.2544 458.575 39.1161 458.851 40.6331C459.196 42.15 459.368 42.9085 459.368 42.9085H445.612C445.612 42.9085 445.474 42.3914 445.198 41.3571C444.922 40.2539 444.302 39.0127 443.337 37.6337C442.371 36.2546 440.923 35.0479 438.993 34.0136C437.062 32.9104 434.476 32.3588 431.235 32.3588C426.616 32.3588 423.237 33.3931 421.099 35.4616C419.031 37.5302 417.996 39.7712 417.996 42.1845C417.996 44.6668 418.962 46.5975 420.893 47.9765C422.823 49.3556 425.409 50.4244 428.65 51.1828L439.51 53.4583C443.578 54.3547 447.301 55.6992 450.68 57.492C454.059 59.2848 456.748 61.6636 458.747 64.6286C460.747 67.5246 461.747 71.1446 461.747 75.4887C461.747 79.9016 460.644 83.9009 458.437 87.4864C456.231 91.0719 452.99 93.9335 448.715 96.071C444.44 98.1396 439.199 99.1739 432.994 99.1739Z" fill="black"/>
<path d="M369.482 99.1739C364.724 99.1739 360.656 98.5878 357.277 97.4156C353.898 96.2434 351.071 94.7264 348.796 92.8647C346.589 91.003 344.831 89.0378 343.521 86.9693C342.211 84.8317 341.211 82.8321 340.522 80.9704C339.901 79.1087 339.487 77.5917 339.28 76.4195C339.074 75.2473 338.97 74.6612 338.97 74.6612H353.243C353.243 74.6612 353.312 75.0749 353.45 75.9024C353.657 76.7298 354.071 77.7986 354.691 79.1087C355.312 80.3498 356.208 81.591 357.38 82.8321C358.622 84.0733 360.242 85.142 362.242 86.0384C364.31 86.8658 366.861 87.2796 369.895 87.2796C374.584 87.2796 378.135 86.2453 380.549 84.1767C383.031 82.0392 384.272 79.419 384.272 76.3161C384.272 73.6959 383.341 71.6273 381.479 70.1103C379.618 68.5244 376.86 67.3522 373.205 66.5938L363.069 64.4218C359.139 63.5943 355.45 62.3532 352.002 60.6983C348.624 59.0434 345.9 56.8025 343.831 53.9754C341.763 51.1484 340.728 47.5284 340.728 43.1154C340.728 38.4956 341.866 34.4963 344.142 31.1176C346.486 27.7389 349.692 25.1532 353.76 23.3605C357.829 21.4987 362.586 20.5679 368.034 20.5679C373.205 20.5679 377.48 21.3264 380.859 22.8433C384.237 24.3603 386.927 26.222 388.926 28.4285C390.995 30.635 392.512 32.8414 393.477 35.0479C394.442 37.2544 395.063 39.1161 395.339 40.6331C395.684 42.15 395.856 42.9085 395.856 42.9085H382.1C382.1 42.9085 381.962 42.3914 381.686 41.3571C381.41 40.2539 380.79 39.0127 379.825 37.6337C378.859 36.2546 377.411 35.0479 375.481 34.0136C373.55 32.9104 370.964 32.3588 367.723 32.3588C363.104 32.3588 359.725 33.3931 357.587 35.4616C355.519 37.5302 354.484 39.7712 354.484 42.1845C354.484 44.6668 355.45 46.5975 357.38 47.9765C359.311 49.3556 361.897 50.4244 365.138 51.1828L375.998 53.4583C380.066 54.3547 383.789 55.6992 387.168 57.492C390.547 59.2848 393.236 61.6636 395.235 64.6286C397.235 67.5246 398.235 71.1446 398.235 75.4887C398.235 79.9016 397.132 83.9009 394.925 87.4864C392.719 91.0719 389.478 93.9335 385.203 96.071C380.928 98.1396 375.687 99.1739 369.482 99.1739Z" fill="black"/>
<path d="M282.092 98.139V21.6016H333.393V33.8062H296.158V53.2508H328.739V65.1452H296.158V85.9344H333.91V98.139H282.092Z" fill="black"/>
<path d="M215.146 98.139V21.6016H244.933C250.45 21.6016 255.138 22.6359 259 24.7044C262.93 26.7041 265.895 29.4622 267.895 32.9787C269.963 36.4264 270.998 40.3222 270.998 44.6662C270.998 49.5619 269.687 53.9403 267.067 57.8017C264.447 61.5941 260.655 64.3522 255.69 66.076L273.273 98.139H257.655L241.313 67.7309H229.212V98.139H215.146ZM244.727 33.8062H229.212V56.2503H244.727C248.657 56.2503 251.656 55.147 253.725 52.9405C255.793 50.6651 256.828 48.0104 256.828 44.9765C256.828 41.9426 255.793 39.3224 253.725 37.1159C251.656 34.9094 248.657 33.8062 244.727 33.8062Z" fill="black"/>
<path d="M151.331 98.139V21.6016H181.532C187.669 21.6016 192.772 22.8427 196.84 25.325C200.908 27.7383 203.942 30.9102 205.942 34.8405C208.01 38.7018 209.045 42.7355 209.045 46.9417C209.045 51.1478 208.01 55.216 205.942 59.1463C203.942 63.0076 200.908 66.1794 196.84 68.6617C192.772 71.144 187.669 72.3852 181.532 72.3852H165.398V98.139H151.331ZM181.429 33.8062H165.398V60.1806H181.429C184.463 60.1806 186.98 59.56 188.979 58.3188C190.979 57.0087 192.461 55.3539 193.427 53.3542C194.461 51.2857 194.978 49.1826 194.978 47.0451C194.978 44.8386 194.461 42.7355 193.427 40.7359C192.461 38.7363 190.979 37.0814 188.979 35.7713C186.98 34.4612 184.463 33.8062 181.429 33.8062Z" fill="black"/>
<path d="M76.4563 98.139L100.452 59.8703L76.4563 21.6016H93.2118L110.071 49.5274L127.033 21.6016H143.685L119.483 59.8703L143.788 98.139H127.033L110.071 70.2132L93.2118 98.139H76.4563Z" fill="black"/>
<path d="M18.2473 98.139V21.6016H69.548V33.8062H32.3136V53.2508H64.8937V65.1452H32.3136V85.9344H70.0651V98.139H18.2473Z" fill="black"/>
</svg>
