<svg width="50" height="50" viewBox="0 0 50 50" fill="none" xmlns="http://www.w3.org/2000/svg">
<path fill-rule="evenodd" clip-rule="evenodd" d="M3.38538 25C3.38538 13.0625 13.0625 3.38538 25 3.38538C36.9374 3.38538 46.6145 13.0625 46.6145 25C46.6145 35.7892 38.7101 44.7304 28.3763 46.352C28.1507 46.3874 27.9209 46.3223 27.7474 46.1739C27.5738 46.0255 27.4739 45.8086 27.4739 45.5802V31.0221C27.4739 30.5906 27.8237 30.2408 28.2552 30.2408H32.4389L33.1229 25.7812H28.2552C27.8237 25.7812 27.4739 25.4314 27.4739 25V21.092C27.4739 20.1546 27.7022 19.1332 28.3913 18.3364C29.0987 17.5184 30.1866 17.0573 31.6503 17.0573H33.4961V13.3839C33.2769 13.3535 33.0107 13.3188 32.7107 13.2842C31.8451 13.1842 30.7119 13.0859 29.6138 13.0859C27.3923 13.0859 25.6417 13.7562 24.4474 14.9515C23.2539 16.1461 22.526 17.9553 22.526 20.4101V25C22.526 25.4314 22.1762 25.7812 21.7448 25.7812H17.2363V30.2408H21.7448C22.1762 30.2408 22.526 30.5906 22.526 31.0221V45.5802C22.526 45.8086 22.4261 46.0255 22.2526 46.1739C22.079 46.3223 21.8492 46.3874 21.6236 46.352C11.2898 44.7304 3.38538 35.7892 3.38538 25ZM34.4087 11.9414C34.7841 12.0055 35.0586 12.3308 35.0586 12.7115V17.8385C35.0586 18.27 34.7088 18.6198 34.2773 18.6198H31.6503C30.5259 18.6198 29.9163 18.9616 29.5732 19.3584C29.2117 19.7764 29.0364 20.3817 29.0364 21.092V24.2187H34.0332C34.261 24.2187 34.4776 24.3182 34.626 24.4911C34.7744 24.664 34.8399 24.8932 34.8054 25.1184L33.8817 31.1405C33.8232 31.5218 33.4952 31.8033 33.1095 31.8033H29.0364V44.6455C38.176 42.7778 45.052 34.6913 45.052 25C45.052 13.9255 36.0744 4.94788 25 4.94788C13.9255 4.94788 4.94788 13.9255 4.94788 25C4.94788 34.6913 11.8239 42.7778 20.9635 44.6455V31.8033H16.455C16.0236 31.8033 15.6738 31.4536 15.6738 31.0221V25C15.6738 24.5685 16.0236 24.2187 16.455 24.2187H20.9635V20.4101C20.9635 17.6435 21.7907 15.4 23.342 13.8472C24.8926 12.2952 27.0766 11.5234 29.6138 11.5234C30.7951 11.5234 31.9936 11.6285 32.8899 11.732C33.3398 11.7839 33.7172 11.8359 33.9829 11.875C34.1159 11.8946 34.2211 11.911 34.2937 11.9226L34.3775 11.9362L34.3999 11.9399L34.406 11.941L34.4087 11.9414Z" fill="white"/>
</svg>
