<svg width="41" height="41" viewBox="0 0 41 41" fill="none" xmlns="http://www.w3.org/2000/svg">
<rect x="0.0078125" y="0.834442" width="40.0039" height="40.0039" rx="14.5469" fill="#FAFAFA"/>
<path d="M29.0527 29.8825H10.9648V11.7898H29.0527V29.8825ZM28.0175 29.6848C28.4814 29.6848 28.8586 29.3072 28.8586 28.8435V12.822C28.8586 12.3583 28.4814 11.9807 28.0175 11.9807H12.0001C11.5362 11.9807 11.1589 12.3583 11.1589 12.822V28.8435C11.1589 29.3072 11.5362 29.6848 12.0001 29.6848H28.0175Z" fill="#131313" stroke="#131313"/>
<path d="M20.3606 20.344L23.4895 17.2143L23.6266 17.352L20.4995 20.4799L20.1462 20.8332L20.4993 21.1868L23.626 24.3174L23.49 24.4534L20.3604 21.326L20.0068 20.9727L19.6534 21.3262L16.5272 24.4532L16.3914 24.3174L19.5181 21.1868L19.8712 20.8332L19.518 20.4799L16.3909 17.352L16.5278 17.2145L19.6532 20.3439L20.0068 20.6979L20.3606 20.344Z" fill="#131313" stroke="#131313"/>
</svg>
