<svg width="458" height="200" viewBox="0 0 458 200" fill="none" xmlns="http://www.w3.org/2000/svg">
<path d="M381.34 68.5673V9.13599H420.131V17.3279H390.737V34.2738H416.437V42.3854H390.737V60.3754H420.532V68.5673H381.34Z" fill="black"/>
<path d="M349.202 69.3708C344.276 69.3708 339.993 68.5141 336.352 66.8008C332.765 65.0875 329.767 62.7852 327.357 59.8939C324.948 56.9491 323.154 53.6831 321.976 50.0958C320.798 46.4549 320.209 42.7338 320.209 38.9323C320.209 35.1309 320.798 31.4097 321.976 27.7689C323.154 24.1281 324.948 20.862 327.357 17.9708C329.82 15.026 332.872 12.6969 336.513 10.9836C340.207 9.21669 344.517 8.33325 349.443 8.33325C353.298 8.33325 356.591 8.81513 359.322 9.77888C362.052 10.7426 364.355 12.0009 366.229 13.5536C368.103 15.0527 369.602 16.659 370.726 18.3723C371.85 20.0857 372.707 21.7187 373.296 23.2714C373.885 24.8241 374.287 26.0823 374.501 27.0461C374.715 28.0098 374.822 28.4917 374.822 28.4917H365.425C365.425 28.4917 365.318 28.0901 365.104 27.287C364.89 26.4839 364.462 25.5201 363.819 24.3958C363.23 23.2178 362.347 22.0399 361.169 20.862C359.991 19.6841 358.438 18.7203 356.511 17.9708C354.637 17.1676 352.308 16.7661 349.524 16.7661C346.204 16.7661 343.286 17.4086 340.769 18.6936C338.307 19.925 336.245 21.5848 334.585 23.673C332.979 25.7611 331.774 28.1169 330.971 30.7405C330.168 33.364 329.767 36.0411 329.767 38.7717C329.767 41.5559 330.168 44.2865 330.971 46.9636C331.828 49.5871 333.059 51.9697 334.666 54.1114C336.326 56.1995 338.36 57.8593 340.769 59.0908C343.232 60.3223 346.097 60.938 349.363 60.938C354.449 60.938 358.492 59.4924 361.49 56.6011C364.488 53.7098 366.148 49.8013 366.47 44.8755H349.524V37.3261H375.545V41.5826C375.545 47.6864 374.367 52.7996 372.011 56.9224C369.709 61.0451 366.55 64.1505 362.534 66.2386C358.572 68.3267 354.128 69.3708 349.202 69.3708Z" fill="black"/>
<path d="M266.482 68.5673L287.202 9.13599H299.249L320.05 68.5673H310.172L305.594 55.2354H280.938L276.36 68.5673H266.482ZM283.749 46.8829H302.783L293.306 19.1751L283.749 46.8829Z" fill="black"/>
<path d="M222.801 68.5673V9.13599H232.198V60.3754H262.234V68.5673H222.801Z" fill="black"/>
<path d="M176.229 68.5673V9.13599H185.626V60.3754H215.663V68.5673H176.229Z" fill="black"/>
<path d="M158.677 68.5673V9.13599H168.073V68.5673H158.677Z" fill="black"/>
<path d="M121.673 68.5673L100.952 9.13599H110.83L127.776 58.5282L144.642 9.13599H154.52L133.719 68.5673H121.673Z" fill="black"/>
<path d="M25 68.5673V9.13599H37.4484L53.5913 42.9476L69.975 9.13599H82.2629V68.5673H73.0269V23.1104L58.0085 53.7898H49.2544L34.2359 22.9497V68.5673H25Z" fill="black"/>
<path d="M366.804 187.021V89.9863H384.638V171.548H432.893V187.021H366.804Z" fill="black"/>
<path d="M290.253 187.021V89.9863H355.293V105.459H308.086V130.112H349.392V145.191H308.086V171.548H355.948V187.021H290.253Z" fill="black"/>
<path d="M234.284 187.021V105.459H204.386V89.9863H282.014V105.459H252.117V187.021H234.284Z" fill="black"/>
<path d="M158.306 188.333C150.351 188.333 143.358 186.934 137.326 184.137C131.294 181.252 126.224 177.449 122.115 172.729C118.094 167.92 115.034 162.544 112.936 156.6C110.925 150.655 109.92 144.58 109.92 138.373C109.92 132.166 110.925 126.134 112.936 120.277C115.034 114.333 118.094 109 122.115 104.28C126.224 99.5589 131.294 95.7999 137.326 93.0025C143.358 90.1177 150.351 88.6753 158.306 88.6753C166.261 88.6753 173.255 90.1177 179.287 93.0025C185.319 95.7999 190.345 99.5589 194.367 104.28C198.475 109 201.535 114.333 203.545 120.277C205.644 126.134 206.693 132.166 206.693 138.373C206.693 144.58 205.644 150.655 203.545 156.6C201.535 162.544 198.475 167.92 194.367 172.729C190.345 177.449 185.319 181.252 179.287 184.137C173.255 186.934 166.261 188.333 158.306 188.333ZM158.306 172.204C164.863 172.204 170.326 170.587 174.697 167.352C179.156 164.118 182.521 159.922 184.794 154.764C187.154 149.606 188.335 144.143 188.335 138.373C188.335 132.691 187.154 127.314 184.794 122.244C182.521 117.086 179.156 112.89 174.697 109.656C170.326 106.421 164.863 104.804 158.306 104.804C151.75 104.804 146.242 106.421 141.784 109.656C137.326 112.89 133.96 117.086 131.687 122.244C129.414 127.314 128.278 132.691 128.278 138.373C128.278 144.143 129.414 149.606 131.687 154.764C133.96 159.922 137.326 164.118 141.784 167.352C146.242 170.587 151.75 172.204 158.306 172.204Z" fill="black"/>
<path d="M25.0001 187.021V89.9863H42.8335V129.849H83.3521V89.9863H101.186V187.021H83.3521V145.322H42.8335V187.021H25.0001Z" fill="black"/>
</svg>
