<svg width="50" height="50" viewBox="0 0 50 50" fill="none" xmlns="http://www.w3.org/2000/svg">
<path d="M6.37854 15.093C6.47598 12.9638 6.80936 11.5906 7.26021 10.425L7.26627 10.4089C7.71305 9.22277 8.41294 8.14826 9.31723 7.26015L9.32992 7.24769L9.34237 7.23499C10.2312 6.32954 11.3061 5.63034 12.4912 5.18475L12.5116 5.17693C13.6746 4.72467 15.0451 4.39253 17.176 4.29511M6.37854 15.093C6.2761 17.3679 6.25 18.073 6.25 23.9713C6.25 29.8711 6.27467 30.5746 6.37849 32.85M6.37854 15.093L6.37854 15.6668M7.26813 37.5349C7.71372 38.7199 8.41292 39.7948 9.31837 40.6837L9.33104 40.6961L9.34348 40.7088C10.2316 41.6131 11.3062 42.313 12.4923 42.7598L12.51 42.7665C13.674 43.2179 15.0452 43.5502 17.176 43.6476M7.26813 37.5349L7.26031 37.5144C6.80805 36.3515 6.47591 34.981 6.37849 32.85M7.26813 37.5349L7.24141 37.3942M6.37849 32.85L6.41338 33.0337M6.37849 32.85L6.37849 32.2747M7.24141 37.3942L6.41338 33.0337M7.24141 37.3942C6.88974 36.4651 6.52761 35.1688 6.41338 33.0337M7.24141 37.3942C7.25375 37.4268 7.26607 37.4589 7.27837 37.4906C7.72436 38.6929 8.43101 39.7816 9.34754 40.6784C10.244 41.5947 11.3322 42.3012 12.5341 42.7472C13.4987 43.123 14.8578 43.5156 17.1757 43.6218C19.5149 43.7282 20.2375 43.75 26.0547 43.75C31.8719 43.75 32.5952 43.7282 34.9343 43.6218C37.2551 43.5154 38.6126 43.1206 39.5738 42.7478C40.7764 42.302 41.8652 41.5952 42.7619 40.6783C43.6782 39.7819 44.3847 38.6937 44.8306 37.4919C45.2063 36.5273 45.5989 35.1682 45.7052 32.8503C45.8116 30.5112 45.8333 29.7871 45.8333 23.9713C45.8333 18.1556 45.8116 17.4309 45.7051 15.0917C45.5982 12.7588 45.1998 11.3993 44.8253 10.4373C44.3357 9.17334 43.7148 8.2174 42.7604 7.26303C41.808 6.31244 40.8546 5.69119 39.5897 5.20109C38.6243 4.82364 37.2638 4.42768 34.9343 4.32093C34.7318 4.31171 34.5413 4.30312 34.3586 4.29513M6.41338 33.0337C6.41015 32.9735 6.40712 32.9126 6.4043 32.851C6.39507 32.6482 6.38648 32.4576 6.37849 32.2747M17.176 4.29511C19.4515 4.1913 20.1564 4.16663 26.0547 4.16663C31.953 4.16663 32.6576 4.1927 34.9325 4.29514M17.176 4.29511L17.7513 4.29511M34.9325 4.29514L34.3586 4.29513M34.9325 4.29514C37.062 4.39253 38.4354 4.72587 39.6011 5.17677L39.6172 5.1829C40.8033 5.62967 41.8778 6.32956 42.7659 7.23385L42.7782 7.24641L42.7908 7.25875C43.6952 8.14695 44.3951 9.22175 44.8414 10.4082L44.8491 10.4283C45.3014 11.5912 45.6335 12.9617 45.7309 15.0927M17.7513 4.29511L34.3586 4.29513M17.7513 4.29511C19.6781 4.21086 20.7431 4.19273 26.0547 4.19273C31.3668 4.19273 32.4315 4.21087 34.3586 4.29513M17.7513 4.29511C17.5685 4.30311 17.3779 4.3117 17.1751 4.32093C14.8543 4.42728 13.4968 4.82212 12.5357 5.19491C11.3285 5.64239 10.2361 6.3528 9.3374 7.27468C8.39193 8.22404 7.77307 9.17541 7.28453 10.4362C6.90706 11.4016 6.51103 12.7627 6.40427 15.0923C6.39508 15.2944 6.38651 15.4845 6.37854 15.6668M45.7309 32.85C45.6335 34.9808 45.3014 36.352 44.8499 37.5161L44.8432 37.5338C44.3964 38.7199 43.6965 39.7944 42.7922 40.6825L42.7795 40.695L42.7671 40.7077C41.8782 41.6131 40.8033 42.3123 39.6182 42.7579L39.5978 42.7657C38.4348 43.218 37.0643 43.5501 34.9334 43.6476M6.37849 32.2747C6.29424 30.3479 6.2761 29.283 6.2761 23.9713C6.2761 18.6581 6.29422 17.5946 6.37854 15.6668M6.37849 32.2747L6.37854 15.6668M22.5323 32.4752C23.6491 32.9378 24.846 33.1758 26.0547 33.1758C28.4959 33.1758 30.8371 32.2061 32.5633 30.4799C34.2895 28.7537 35.2592 26.4125 35.2592 23.9713C35.2592 21.5302 34.2895 19.189 32.5633 17.4628C30.8371 15.7366 28.4959 14.7668 26.0547 14.7668C24.846 14.7668 23.6491 15.0049 22.5323 15.4675C21.4156 15.9301 20.4009 16.6081 19.5462 17.4628C18.6914 18.3175 18.0135 19.3322 17.5509 20.4489C17.0883 21.5657 16.8502 22.7626 16.8502 23.9713C16.8502 25.1801 17.0883 26.377 17.5509 27.4938C18.0134 28.6105 18.6914 29.6252 19.5462 30.4799C20.4009 31.3346 21.4156 32.0126 22.5323 32.4752ZM19.5257 17.4423C21.2573 15.7107 23.6058 14.7378 26.0547 14.7378C28.5036 14.7378 30.8522 15.7107 32.5838 17.4423C34.3154 19.1739 35.2882 21.5225 35.2882 23.9713C35.2882 26.4202 34.3154 28.7688 32.5838 30.5004C30.8522 32.232 28.5036 33.2048 26.0547 33.2048C23.6058 33.2048 21.2573 32.232 19.5257 30.5004C17.794 28.7688 16.8212 26.4202 16.8212 23.9713C16.8212 21.5225 17.794 19.1739 19.5257 17.4423ZM40.4875 12.5881C40.4875 13.289 40.2091 13.9612 39.7135 14.4568C39.2179 14.9524 38.5457 15.2309 37.8447 15.2309C37.1438 15.2309 36.4716 14.9524 35.976 14.4568C35.4804 13.9612 35.2019 13.289 35.2019 12.5881C35.2019 11.8872 35.4804 11.2149 35.976 10.7193C36.4716 10.2237 37.1438 9.94527 37.8447 9.94527C38.5457 9.94527 39.2179 10.2237 39.7135 10.7193C40.2091 11.2149 40.4875 11.8872 40.4875 12.5881Z" stroke="white" stroke-width="1.5" stroke-linejoin="round"/>
</svg>
