<svg width="50" height="50" viewBox="0 0 50 50" fill="none" xmlns="http://www.w3.org/2000/svg">
<path d="M45.8333 7.23035V42.7696C45.8333 43.5821 45.5105 44.3614 44.9359 44.9359C44.3614 45.5105 43.5821 45.8333 42.7696 45.8333H7.23035C6.4178 45.8333 5.63853 45.5105 5.06397 44.9359C4.48941 44.3614 4.16663 43.5821 4.16663 42.7696L4.16663 7.23035C4.16663 6.4178 4.48941 5.63853 5.06397 5.06397C5.63853 4.48941 6.4178 4.16663 7.23035 4.16663H42.7696C43.5821 4.16663 44.3614 4.48941 44.9359 5.06397C45.5105 5.63853 45.8333 6.4178 45.8333 7.23035V7.23035ZM16.4215 20.098H10.2941V39.7058H16.4215V20.098ZM16.973 13.3578C16.9762 12.8943 16.8881 12.4347 16.7137 12.0053C16.5393 11.5758 16.2821 11.1849 15.9566 10.8549C15.6312 10.5249 15.2439 10.2622 14.8169 10.0819C14.3899 9.90156 13.9316 9.80709 13.4681 9.80388H13.3578C12.4152 9.80388 11.5113 10.1783 10.8448 10.8448C10.1783 11.5113 9.80388 12.4152 9.80388 13.3578C9.80388 14.3004 10.1783 15.2043 10.8448 15.8708C11.5113 16.5373 12.4152 16.9117 13.3578 16.9117V16.9117C13.8213 16.9231 14.2826 16.8431 14.7151 16.6762C15.1477 16.5093 15.5432 16.2588 15.8789 15.939C16.2146 15.6192 16.4841 15.2363 16.6718 14.8124C16.8595 14.3884 16.9619 13.9316 16.973 13.4681V13.3578ZM39.7058 27.7941C39.7058 21.8995 35.9558 19.6078 32.2303 19.6078C31.0105 19.5467 29.7961 19.8065 28.708 20.3613C27.6199 20.9161 26.6964 21.7464 26.0294 22.7696H25.8578V20.098H20.098V39.7058H26.2254V29.2769C26.1369 28.2088 26.4733 27.1489 27.1617 26.3274C27.8501 25.506 28.8348 24.9893 29.9019 24.8897H30.1348C32.0833 24.8897 33.5294 26.1152 33.5294 29.2034V39.7058H39.6568L39.7058 27.7941Z" stroke="white" stroke-width="1.5" stroke-linejoin="round"/>
</svg>
