<svg width="455" height="200" viewBox="0 0 455 200" fill="none" xmlns="http://www.w3.org/2000/svg">
<path d="M387.186 183.333C379.214 183.333 372.271 181.93 366.357 179.123C360.443 176.316 355.514 172.544 351.571 167.807C347.714 162.982 344.8 157.632 342.829 151.754C340.943 145.789 340 139.693 340 133.465C340 127.237 340.943 121.14 342.829 115.175C344.8 109.21 347.757 103.86 351.7 99.1227C355.643 94.2982 360.614 90.4824 366.614 87.6754C372.614 84.7806 379.6 83.3333 387.571 83.3333C393.829 83.3333 399.186 84.1666 403.643 85.8333C408.186 87.4122 411.957 89.4736 414.957 92.0175C418.043 94.5613 420.486 97.2806 422.286 100.175C424.171 102.982 425.586 105.658 426.529 108.202C427.471 110.746 428.114 112.851 428.457 114.517C428.8 116.096 428.971 116.886 428.971 116.886H411.486C411.486 116.886 411.314 116.316 410.971 115.175C410.714 113.947 410.114 112.456 409.171 110.702C408.229 108.947 406.857 107.193 405.057 105.439C403.343 103.684 401.071 102.237 398.243 101.096C395.414 99.8683 391.9 99.2543 387.7 99.2543C382.643 99.2543 378.229 100.219 374.457 102.149C370.771 104.079 367.686 106.667 365.2 109.912C362.714 113.158 360.871 116.798 359.671 120.833C358.471 124.868 357.871 128.991 357.871 133.202C357.871 138.903 358.986 144.386 361.214 149.649C363.443 154.912 366.743 159.21 371.114 162.544C375.571 165.877 381.057 167.544 387.571 167.544C395.114 167.544 401.071 165.439 405.443 161.228C409.9 157.017 412.429 151.403 413.029 144.386H387.057V130.175H430V137.412C430 147.5 428.114 155.965 424.343 162.807C420.571 169.561 415.429 174.693 408.914 178.202C402.486 181.623 395.243 183.333 387.186 183.333Z" fill="black"/>
<path d="M250 183.333V88.333H266.561L311.97 152.779V88.333H330V183.333H313.439L268.03 120.042V183.333H250Z" fill="black"/>
<path d="M220 183.333V88.333H240V183.333H220Z" fill="black"/>
<path d="M158.358 183.333L125 88.333H143.576L170 165.617L196.424 88.333H215L181.512 183.333H158.358Z" fill="black"/>
<path d="M100 183.333V88.333H120V183.333H100Z" fill="black"/>
<path d="M25 183.333V88.333H43.8889V168.184H95V183.333H25Z" fill="black"/>
<path d="M375 63.3333V8.33325H414.59V15.9143H384.59V31.5968H410.82V39.1035H384.59V55.7522H415V63.3333H375Z" fill="black"/>
<path d="M343.817 68.3332C338.921 68.3332 334.664 67.4911 331.045 65.8069C327.479 64.1227 324.499 61.8596 322.105 59.0175C319.71 56.1227 317.927 52.9122 316.756 49.3859C315.585 45.8069 315 42.149 315 38.4122C315 34.6754 315.585 31.0175 316.756 27.4385C317.927 23.8596 319.71 20.649 322.105 17.8069C324.553 14.9122 327.586 12.6227 331.205 10.9385C334.877 9.20167 339.161 8.33325 344.057 8.33325C347.888 8.33325 351.161 8.80694 353.875 9.7543C356.589 10.7017 358.878 11.9385 360.74 13.4648C362.603 14.9385 364.093 16.5175 365.21 18.2017C366.328 19.8859 367.18 21.4911 367.765 23.0175C368.35 24.5438 368.749 25.7806 368.962 26.728C369.175 27.6754 369.282 28.149 369.282 28.149H359.942C359.942 28.149 359.836 27.7543 359.623 26.9648C359.41 26.1754 358.984 25.228 358.345 24.1227C357.76 22.9648 356.882 21.8069 355.711 20.649C354.54 19.4911 352.997 18.5438 351.081 17.8069C349.219 17.0175 346.904 16.6227 344.136 16.6227C340.837 16.6227 337.937 17.2543 335.435 18.5175C332.987 19.728 330.939 21.3596 329.289 23.4122C327.692 25.4648 326.495 27.7806 325.697 30.3596C324.898 32.9385 324.499 35.5701 324.499 38.2543C324.499 40.9911 324.898 43.6754 325.697 46.3069C326.548 48.8859 327.772 51.228 329.369 53.3332C331.018 55.3859 333.041 57.0175 335.435 58.228C337.883 59.4385 340.731 60.0438 343.977 60.0438C349.032 60.0438 353.05 58.6227 356.031 55.7806C359.011 52.9385 360.66 49.0964 360.98 44.2543H344.136V36.8332H370V41.0175C370 47.0175 368.829 52.0438 366.488 56.0964C364.199 60.149 361.06 63.2017 357.068 65.2543C353.13 67.3069 348.713 68.3332 343.817 68.3332Z" fill="black"/>
<path d="M265 63.3333L284.34 8.33325H295.585L315 63.3333H305.78L301.507 50.9954H278.493L274.22 63.3333H265ZM281.117 43.2657H298.883L290.038 17.6238L281.117 43.2657Z" fill="black"/>
<path d="M220 63.3333V8.33325H229.532V55.7522H260V63.3333H220Z" fill="black"/>
<path d="M180 63.3333V8.33325H188.34V55.7522H215V63.3333H180Z" fill="black"/>
<path d="M160 63.3333V8.33325H170V63.3333H160Z" fill="black"/>
<path d="M121.274 63.3333L100 8.33325H110.142L127.541 54.0427L144.858 8.33325H155L133.643 63.3333H121.274Z" fill="black"/>
<path d="M25 63.3333V8.33325H38.0435L54.9579 39.6238L72.1248 8.33325H85V63.3333H75.3226V21.2657L59.5863 49.6576H50.4137L34.6774 21.117V63.3333H25Z" fill="black"/>
</svg>
