<svg width="261" height="57" viewBox="0 0 261 57" fill="none" xmlns="http://www.w3.org/2000/svg">
<g clip-path="url(#clip0_1986_104720)">
<path d="M65.0908 2.06538H71.3599V0.160156H57.2136L36.0799 45.6239H34.7331L16.6686 0.266456L16.6196 0.160156H0V2.06538H6.114L7.5425 3.50452V53.4901L6.114 54.921H0V56.8344H17.3135V54.921H11.1913L9.76281 53.4901V11.1908H11.3301L29.5088 56.8344H32.823L54.0138 12.0167H55.5974V53.4901L54.1607 54.921H47.8916V56.8344H71.3599V54.921H65.0908L63.6623 53.4901V3.50452L65.0908 2.06538Z" fill="#131313"/>
<path d="M71.3594 0.160156V56.8344H86.0934V0.160156H71.3594Z" fill="#F06A25"/>
<path d="M74.1602 46.0656L81.8251 48.8867V48.9439L74.1602 51.765V53.0978L83.3842 49.6226V48.2898L74.1602 44.8064V46.0656Z" fill="#131313"/>
<path d="M83.3026 42.623H74.1602V43.8169H83.3026V42.623Z" fill="#131313"/>
<path d="M83.2944 35.7708H82.2006V40.0228H74.1602V41.2166H83.2944V35.7708Z" fill="#131313"/>
<path d="M83.2944 29.1311H82.2006V33.3831H74.1602V34.5688H83.2944V29.1311Z" fill="#131313"/>
<path d="M83.2947 26.8169L80.6744 25.8602V22.0416L83.2947 21.0849V19.793L74.0625 23.2682V24.601L83.2947 28.0762V26.8088V26.8169ZM79.5888 25.4678L75.4339 23.9632V23.9141L79.5888 22.3932V25.4678Z" fill="#131313"/>
<path d="M78.7238 19.8012C81.5563 19.8012 83.4909 17.9042 83.4909 15.3121C83.4909 12.72 81.6869 11.2727 79.0013 11.1909H78.5687V15.2549H79.6625V12.4829C81.1482 12.6137 82.3645 13.5132 82.3645 15.3039C82.3645 17.25 80.838 18.5583 78.7238 18.5583C76.6096 18.5583 75.0832 17.2255 75.0832 15.3121C75.0832 13.9139 75.9566 12.998 76.9116 12.6546L76.4953 11.5017C74.8872 12.1149 73.9648 13.5132 73.9648 15.3366C73.9648 17.8715 75.8994 19.7849 78.732 19.7849L78.7238 19.8012Z" fill="#131313"/>
<path d="M83.2944 4.00342H82.2006V8.78692H79.2211V4.00342H78.1273V8.78692H75.254V4.00342H74.1602V9.98075H83.2944V4.00342Z" fill="#131313"/>
<path d="M151.748 56.8344V6.78347L129.268 56.8344H126.696L104.379 6.96336V56.8344H100.828V0.160156H105.326L128.06 51.0779L150.793 0.160156H155.299V56.8344H151.748Z" fill="#131313"/>
<path d="M244.602 56.8344C241.908 56.8344 239.41 56.3356 237.173 55.3462C234.945 54.365 232.986 52.9749 231.37 51.2169C229.753 49.4588 228.488 47.3328 227.615 44.8961C226.749 42.4757 226.309 39.8182 226.309 36.989C226.309 34.1598 226.766 31.6904 227.664 29.3599C228.562 27.0295 229.81 24.9935 231.386 23.2926C232.961 21.5837 234.847 20.2427 236.977 19.3105C239.116 18.3783 241.434 17.9041 243.883 17.9041C246.74 17.9041 249.279 18.4192 251.426 19.4331C253.564 20.4471 255.368 21.8044 256.789 23.4644C258.209 25.1243 259.278 27.0295 259.972 29.131C260.658 31.2161 261.009 33.3748 261.009 35.5335V37.9212H229.892C229.974 39.6302 230.268 41.3391 230.774 42.999C231.37 44.9533 232.284 46.7277 233.492 48.2732C234.692 49.8023 236.226 51.0533 238.071 52.0018C239.9 52.9422 242.096 53.4165 244.61 53.4165C247.124 53.4165 249.475 52.9013 251.458 51.8874C253.442 50.8734 255.197 49.3689 256.666 47.4146L257.279 46.6051L259.923 48.9191L259.385 49.6224C257.589 51.9528 255.458 53.7517 253.042 54.9701C250.618 56.1966 247.785 56.8181 244.626 56.8181L244.602 56.8344ZM257.401 34.6013C257.279 32.8188 256.919 31.1589 256.332 29.6625C255.646 27.9126 254.707 26.3917 253.532 25.1488C252.365 23.9141 250.944 22.941 249.312 22.2624C247.663 21.5837 245.802 21.2321 243.761 21.2321C241.312 21.2321 239.206 21.739 237.492 22.7366C235.737 23.7587 234.292 25.0262 233.19 26.5062C232.072 28.0107 231.239 29.5971 230.717 31.2406C230.325 32.4753 230.072 33.6038 229.974 34.6013H257.401Z" fill="#131313"/>
<path d="M225.525 18.0022C225.198 17.9368 224.905 17.9041 224.635 17.9041H223.933C221.093 17.9041 218.407 18.7953 215.966 20.5452C214.579 21.5428 213.395 22.9002 212.432 24.6091V18.9998H208.881V56.8344H212.432V37.2915C212.432 35.4027 212.668 33.4729 213.142 31.5513C213.607 29.6625 214.342 27.9208 215.321 26.3754C216.276 24.8708 217.509 23.6279 218.995 22.6957C220.439 21.7881 222.235 21.322 224.325 21.322H224.749C224.847 21.322 224.97 21.3384 225.101 21.3711L226.3 21.6654V18.1494L225.517 17.994L225.525 18.0022Z" fill="#131313"/>
<path d="M182.09 17.9041C171.356 17.9041 162.662 26.6207 162.662 37.3651C162.662 48.1096 171.364 56.8262 182.09 56.8262C192.816 56.8262 201.517 48.1096 201.517 37.3651C201.517 26.6207 192.816 17.9041 182.09 17.9041ZM182.09 53.2774C173.323 53.2774 166.213 46.1553 166.213 37.3733C166.213 28.5913 173.323 21.4692 182.09 21.4692C190.857 21.4692 197.967 28.5913 197.967 37.3733C197.967 46.1553 190.857 53.2774 182.09 53.2774Z" fill="#131313"/>
</g>
<defs>
<clipPath id="clip0_1986_104720">
<rect width="261" height="56.6743" fill="white" transform="translate(0 0.160156)"/>
</clipPath>
</defs>
</svg>
