<svg width="20" height="23" viewBox="0 0 20 23" fill="none" xmlns="http://www.w3.org/2000/svg">
  <path
    d="M9.99999 6.5625C10.5562 6.5625 11.1 6.39755 11.5625 6.08851C12.025 5.77947 12.3855 5.34022 12.5984 4.8263C12.8113 4.31238 12.867 3.74688 12.7584 3.20131C12.6499 2.65574 12.3821 2.1546 11.9887 1.76126C11.5954 1.36793 11.0943 1.10006 10.5487 0.991543C10.0031 0.883022 9.43761 0.938719 8.92369 1.15159C8.40978 1.36446 7.97052 1.72495 7.66148 2.18746C7.35244 2.64997 7.18749 3.19374 7.18749 3.75C7.18749 4.49592 7.48381 5.21129 8.01125 5.73874C8.5387 6.26619 9.25407 6.5625 9.99999 6.5625ZM9.99999 2.0625C10.3337 2.0625 10.66 2.16147 10.9375 2.3469C11.215 2.53232 11.4313 2.79587 11.559 3.10422C11.6868 3.41257 11.7202 3.75187 11.6551 4.07922C11.59 4.40656 11.4292 4.70724 11.1932 4.94324C10.9572 5.17924 10.6565 5.33996 10.3292 5.40508C10.0019 5.47019 9.66256 5.43677 9.35421 5.30905C9.04586 5.18133 8.78231 4.96503 8.59688 4.68753C8.41146 4.41002 8.31249 4.08376 8.31249 3.75C8.31249 3.30245 8.49028 2.87323 8.80675 2.55676C9.12321 2.24029 9.55244 2.0625 9.99999 2.0625ZM19.5203 8.26313C19.4434 7.88509 19.237 7.54576 18.9366 7.30373C18.6362 7.06171 18.2607 6.93217 17.875 6.9375H2.12499C1.74039 6.9375 1.36733 7.06888 1.0676 7.30988C0.76787 7.55087 0.559452 7.88702 0.476866 8.26264C0.394281 8.63827 0.442483 9.03084 0.61349 9.37533C0.784497 9.71982 1.06805 9.99556 1.41718 10.1569H1.42655L6.33155 12.3131L4.32155 19.9538C4.21006 20.2109 4.16438 20.4918 4.18863 20.771C4.21289 21.0503 4.30631 21.3191 4.46048 21.5532C4.61465 21.7873 4.82469 21.9793 5.07165 22.1118C5.31861 22.2444 5.5947 22.3134 5.87499 22.3125C6.19153 22.3117 6.50152 22.2222 6.76979 22.0542C7.03806 21.8861 7.25389 21.6463 7.3928 21.3619L9.99999 16.875L12.6072 21.3666C12.8025 21.758 13.1421 22.0584 13.5546 22.2042C13.967 22.3501 14.42 22.3301 14.8179 22.1484C15.2159 21.9667 15.5278 21.6376 15.6878 21.2305C15.8478 20.8233 15.8434 20.3699 15.6756 19.9659L13.6656 12.3253L18.5706 10.1691H18.58C18.9355 10.0122 19.2244 9.73532 19.3963 9.38689C19.5682 9.03845 19.6121 8.64066 19.5203 8.26313ZM18.1141 9.13406L12.775 11.4853C12.6527 11.5391 12.5536 11.6347 12.4954 11.755C12.4371 11.8752 12.4236 12.0123 12.4572 12.1416L14.6012 20.2913C14.6106 20.3233 14.6222 20.3546 14.6359 20.385C14.699 20.5203 14.7057 20.675 14.6546 20.8152C14.6035 20.9554 14.4988 21.0696 14.3636 21.1327C14.2283 21.1957 14.0736 21.2024 13.9334 21.1513C13.7931 21.1003 13.679 20.9956 13.6159 20.8603C13.6094 20.8449 13.6019 20.8298 13.5934 20.8153L10.4866 15.4688C10.4371 15.3835 10.3661 15.3128 10.2807 15.2636C10.1953 15.2144 10.0985 15.1885 9.99999 15.1885C9.90145 15.1885 9.80463 15.2144 9.71924 15.2636C9.63385 15.3128 9.56287 15.3835 9.51343 15.4688L6.40843 20.8172C6.39999 20.8322 6.39249 20.8463 6.38499 20.8622C6.35376 20.9294 6.30955 20.9898 6.2549 21.0399C6.20024 21.09 6.13622 21.1288 6.06652 21.1541C5.99682 21.1793 5.92282 21.1906 5.84876 21.1872C5.7747 21.1837 5.70205 21.1657 5.63499 21.1341C5.56775 21.1028 5.50735 21.0586 5.45725 21.004C5.40716 20.9493 5.36836 20.8853 5.3431 20.8156C5.31783 20.7459 5.30659 20.6719 5.31003 20.5978C5.31346 20.5238 5.3315 20.4511 5.36312 20.3841C5.37684 20.3537 5.38843 20.3223 5.3978 20.2903L7.54186 12.1406C7.57545 12.0113 7.56192 11.8743 7.50369 11.754C7.44546 11.6338 7.34633 11.5382 7.22405 11.4844L1.8878 9.13406C1.77223 9.07974 1.67858 8.98771 1.62226 8.8731C1.56593 8.75848 1.55028 8.62812 1.57788 8.50343C1.60548 8.37875 1.67469 8.26716 1.77412 8.18703C1.87355 8.10689 1.99729 8.06298 2.12499 8.0625H17.875C18.0029 8.06234 18.1271 8.1058 18.227 8.18571C18.3269 8.26563 18.3966 8.37721 18.4246 8.50206C18.4526 8.62691 18.4371 8.75757 18.3808 8.87246C18.3246 8.98736 18.2308 9.07964 18.115 9.13406H18.1141Z"
    fill="#0A0A0A" />
</svg>
  