<?xml version="1.0" encoding="utf-8"?>
<!-- Generator: Adobe Illustrator 24.1.2, SVG Export Plug-In . SVG Version: 6.00 Build 0)  -->
<svg version="1.1" id="Layer_1" xmlns="http://www.w3.org/2000/svg" xmlns:xlink="http://www.w3.org/1999/xlink" x="0px" y="0px"
	 viewBox="0 0 32 31" style="enable-background:new 0 0 32 31;" xml:space="preserve">
<style type="text/css">
	.st0{fill:#F77E3E;}
</style>
<g>
	<path class="st0" d="M10.2,9.9c-1.8,0-3.3-1.5-3.3-3.3s1.5-3.3,3.3-3.3c1.8,0,3.3,1.5,3.3,3.3S12,9.9,10.2,9.9z M10.2,4.8
		c-1,0-1.8,0.8-1.8,1.8s0.8,1.8,1.8,1.8S12,7.6,12,6.6S11.2,4.8,10.2,4.8z"/>
</g>
<g>
	<path class="st0" d="M21.7,9.9c-1.8,0-3.3-1.5-3.3-3.3s1.5-3.3,3.3-3.3S25,4.7,25,6.6S23.5,9.9,21.7,9.9z M21.7,4.8
		c-1,0-1.8,0.8-1.8,1.8s0.8,1.8,1.8,1.8s1.8-0.8,1.8-1.8S22.7,4.8,21.7,4.8z"/>
</g>
<g>
	<path class="st0" d="M23.6,27.8h-3.8c-0.4,0-0.7-0.3-0.7-0.7L17.8,13c0-0.2,0.1-0.4,0.2-0.6c0.1-0.2,0.3-0.2,0.6-0.2h6.4
		c0.2,0,0.4,0.1,0.6,0.2c0.1,0.2,0.2,0.4,0.2,0.6l-1.3,14.1C24.3,27.5,24,27.8,23.6,27.8z M20.5,26.3h2.5l1.1-12.6h-4.7L20.5,26.3z
		 M12.1,27.8H8.3c-0.4,0-0.7-0.3-0.7-0.7L6.3,13c0-0.2,0.1-0.4,0.2-0.6c0.1-0.2,0.3-0.2,0.6-0.2h6.4c0.2,0,0.4,0.1,0.6,0.2
		c0.1,0.2,0.2,0.4,0.2,0.6l-1.3,14.1C12.8,27.5,12.5,27.8,12.1,27.8z M9,26.3h2.5l1.1-12.6H7.8L9,26.3z"/>
</g>
</svg>
