<svg width="40" height="41" viewBox="0 0 40 41" fill="none" xmlns="http://www.w3.org/2000/svg">
<rect x="0.00390625" y="0.834442" width="40.0039" height="40.0039" rx="14.5469" fill="#FAFAFA"/>
<path d="M18.8144 24.8314L18.7812 24.7982L16.8168 22.8349C16.7127 22.7381 16.5751 22.6854 16.4329 22.6879C16.2905 22.6905 16.1546 22.7482 16.0539 22.8489C15.9532 22.9496 15.8955 23.0855 15.893 23.2279C15.8905 23.3701 15.9431 23.5077 16.0399 23.6118C16.0401 23.612 16.0402 23.6122 16.0404 23.6124L18.4259 25.9978C18.5289 26.1008 18.6687 26.1586 18.8144 26.1586C18.9601 26.1586 19.0998 26.1008 19.2029 25.9978L23.976 21.2247L18.8144 24.8314ZM18.8144 24.8314L18.8475 24.7982M18.8144 24.8314L18.8475 24.7982M18.8475 24.7982L23.199 20.4477C23.1991 20.4477 23.1991 20.4477 23.1991 20.4477C23.3021 20.3447 23.4419 20.2869 23.5876 20.2869C23.7332 20.2869 23.873 20.3447 23.9761 20.4477M18.8475 24.7982L23.9761 20.4477M23.9761 20.4477C24.079 20.5508 24.1368 20.6905 24.1368 20.8362M23.9761 20.4477L24.1368 20.8362M24.1368 20.8362C24.1368 20.9818 24.079 21.1216 23.976 21.2246L24.1368 20.8362ZM25.3306 11.4886V11.5355H25.3775H27.963C28.3198 11.5355 28.662 11.6773 28.9143 11.9296C29.1665 12.1818 29.3083 12.524 29.3083 12.8808V28.7915C29.3083 29.1483 29.1665 29.4905 28.9143 29.7427C28.662 29.995 28.3198 30.1368 27.963 30.1368H12.0523C11.6955 30.1368 11.3534 29.995 11.1011 29.7427C10.8488 29.4905 10.707 29.1483 10.707 28.7915V12.8808C10.707 12.524 10.8488 12.1818 11.1011 11.9296C11.3534 11.6773 11.6955 11.5355 12.0523 11.5355H14.6378H14.6847V11.4886V10.4942C14.6847 10.3484 14.7426 10.2086 14.8457 10.1055C14.9488 10.0024 15.0887 9.94446 15.2345 9.94446C15.3803 9.94446 15.5201 10.0024 15.6232 10.1055C15.7263 10.2086 15.7842 10.3484 15.7842 10.4942V11.4886V11.5355H15.8311H24.1842H24.2311V11.4886V10.4942C24.2311 10.3484 24.289 10.2086 24.3921 10.1055C24.4952 10.0024 24.635 9.94446 24.7809 9.94446C24.9267 9.94446 25.0665 10.0024 25.1696 10.1055C25.2727 10.2086 25.3306 10.3484 25.3306 10.4942V11.4886ZM14.6847 12.6819V12.6351H14.6378H12.0523C11.9872 12.6351 11.9246 12.661 11.8786 12.7071C11.8325 12.7531 11.8066 12.8156 11.8066 12.8808V16.2618V16.3087H11.8535H28.1619H28.2087V16.2618V12.8808C28.2087 12.8157 28.1828 12.7531 28.1368 12.7071C28.0907 12.661 28.0282 12.6351 27.963 12.6351H25.3775H25.3306V12.6819V13.6764C25.3306 13.8222 25.2727 13.962 25.1696 14.0651C25.0665 14.1682 24.9267 14.2261 24.7809 14.2261C24.635 14.2261 24.4952 14.1682 24.3921 14.0651C24.289 13.962 24.2311 13.8222 24.2311 13.6764V12.6819V12.6351H24.1842H15.8311H15.7842V12.6819V13.6764C15.7842 13.8222 15.7263 13.962 15.6232 14.0651C15.5201 14.1682 15.3803 14.2261 15.2345 14.2261C15.0887 14.2261 14.9488 14.1682 14.8457 14.0651C14.7426 13.962 14.6847 13.8222 14.6847 13.6764V12.6819ZM11.8535 17.4083H11.8066V17.4551V28.7915C11.8066 28.8567 11.8325 28.9192 11.8786 28.9653C11.9246 29.0113 11.9872 29.0372 12.0523 29.0372H27.963C28.0282 29.0372 28.0907 29.0113 28.1368 28.9653C28.1828 28.9192 28.2087 28.8566 28.2087 28.7915V17.4551V17.4083H28.1619H11.8535Z" fill="#131313" stroke="#131313" stroke-width="0.09375"/>
</svg>
