<svg width="23" height="19" viewBox="0 0 23 19" fill="none" xmlns="http://www.w3.org/2000/svg">
<path d="M13.0663 18.7817C14.846 18.7817 16.5858 18.254 18.0656 17.2652C19.5454 16.2764 20.6988 14.8711 21.3798 13.2268C22.0609 11.5825 22.2391 9.77323 21.8919 8.02768C21.5447 6.28214 20.6877 4.67875 19.4292 3.42028C18.1707 2.16181 16.5674 1.30479 14.8218 0.957576C13.0763 0.610366 11.267 0.788567 9.62269 1.46964C7.97843 2.15072 6.57305 3.30409 5.58428 4.78389C4.5955 6.26369 4.06775 8.00347 4.06775 9.78321V14.4325L1.36819 11.7329L0.318359 12.7827L4.81763 17.282L9.31689 12.7827L8.26707 11.7329L5.5675 14.4325V9.78321C5.5675 8.30009 6.0073 6.85028 6.83128 5.61711C7.65525 4.38394 8.8264 3.4228 10.1966 2.85524C11.5668 2.28767 13.0746 2.13917 14.5292 2.42851C15.9838 2.71786 17.32 3.43205 18.3687 4.48077C19.4174 5.52949 20.1316 6.86565 20.421 8.32027C20.7103 9.77489 20.5618 11.2826 19.9943 12.6529C19.4267 14.0231 18.4655 15.1942 17.2324 16.0182C15.9992 16.8422 14.5494 17.282 13.0663 17.282V18.7817Z" fill="#6D6E70"/>
<path d="M13.0663 18.7817C14.846 18.7817 16.5858 18.254 18.0656 17.2652C19.5454 16.2764 20.6988 14.8711 21.3798 13.2268C22.0609 11.5825 22.2391 9.77323 21.8919 8.02768C21.5447 6.28214 20.6877 4.67875 19.4292 3.42028C18.1707 2.16181 16.5674 1.30479 14.8218 0.957576C13.0763 0.610366 11.267 0.788567 9.62269 1.46964C7.97843 2.15072 6.57305 3.30409 5.58428 4.78389C4.5955 6.26369 4.06775 8.00347 4.06775 9.78321V14.4325L1.36819 11.7329L0.318359 12.7827L4.81763 17.282L9.31689 12.7827L8.26707 11.7329L5.5675 14.4325V9.78321C5.5675 8.30009 6.0073 6.85028 6.83128 5.61711C7.65525 4.38394 8.8264 3.4228 10.1966 2.85524C11.5668 2.28767 13.0746 2.13917 14.5292 2.42851C15.9838 2.71786 17.32 3.43205 18.3687 4.48077C19.4174 5.52949 20.1316 6.86565 20.421 8.32027C20.7103 9.77489 20.5618 11.2826 19.9943 12.6529C19.4267 14.0231 18.4655 15.1942 17.2324 16.0182C15.9992 16.8422 14.5494 17.282 13.0663 17.282V18.7817Z" fill="black" fill-opacity="0.2"/>
</svg>
