<svg width="25" height="25" viewBox="0 0 25 25" fill="none" xmlns="http://www.w3.org/2000/svg">
<path d="M14.0663 21.7817C15.846 21.7817 17.5858 21.254 19.0656 20.2652C20.5454 19.2764 21.6988 17.8711 22.3798 16.2268C23.0609 14.5825 23.2391 12.7732 22.8919 11.0277C22.5447 9.28214 21.6877 7.67875 20.4292 6.42028C19.1707 5.16181 17.5674 4.30479 15.8218 3.95758C14.0763 3.61037 12.267 3.78857 10.6227 4.46964C8.97843 5.15072 7.57305 6.30409 6.58428 7.78389C5.5955 9.26369 5.06775 11.0035 5.06775 12.7832V17.4325L2.36819 14.7329L1.31836 15.7827L5.81763 20.282L10.3169 15.7827L9.26707 14.7329L6.5675 17.4325V12.7832C6.5675 11.3001 7.0073 9.85028 7.83128 8.61711C8.65525 7.38394 9.8264 6.4228 11.1966 5.85524C12.5668 5.28767 14.0746 5.13917 15.5292 5.42851C16.9838 5.71786 18.32 6.43205 19.3687 7.48077C20.4174 8.52949 21.1316 9.86565 21.421 11.3203C21.7103 12.7749 21.5618 14.2826 20.9943 15.6529C20.4267 17.0231 19.4655 18.1942 18.2324 19.0182C16.9992 19.8422 15.5494 20.282 14.0663 20.282V21.7817Z" fill="#FF7526"/>
</svg>
