<svg width="615" height="200" viewBox="0 0 615 200" fill="none" xmlns="http://www.w3.org/2000/svg">
<path d="M525.487 189.144V125.813H566.823V134.542H535.5V152.6H562.886V161.244H535.5V180.415H567.251V189.144H525.487Z" fill="black"/>
<path d="M491.24 190C485.991 190 481.426 189.087 477.547 187.261C473.724 185.435 470.529 182.982 467.961 179.901C465.394 176.763 463.482 173.282 462.227 169.46C460.972 165.58 460.344 161.614 460.344 157.564C460.344 153.513 460.972 149.547 462.227 145.667C463.482 141.788 465.394 138.307 467.961 135.226C470.586 132.088 473.838 129.606 477.718 127.781C481.655 125.898 486.248 124.956 491.497 124.956C495.605 124.956 499.114 125.47 502.023 126.497C504.933 127.524 507.387 128.865 509.384 130.519C511.381 132.117 512.978 133.828 514.176 135.654C515.374 137.48 516.287 139.22 516.915 140.875C517.543 142.529 517.97 143.87 518.199 144.897C518.427 145.924 518.541 146.438 518.541 146.438H508.528C508.528 146.438 508.414 146.01 508.185 145.154C507.957 144.298 507.501 143.271 506.816 142.073C506.188 140.818 505.247 139.563 503.992 138.307C502.737 137.052 501.082 136.025 499.028 135.226C497.031 134.37 494.549 133.943 491.582 133.943C488.045 133.943 484.935 134.627 482.254 135.997C479.629 137.309 477.432 139.078 475.664 141.303C473.952 143.528 472.668 146.038 471.812 148.834C470.957 151.63 470.529 154.483 470.529 157.392C470.529 160.359 470.957 163.269 471.812 166.122C472.725 168.918 474.038 171.457 475.749 173.739C477.518 175.964 479.686 177.733 482.254 179.045C484.878 180.357 487.931 181.013 491.411 181.013C496.831 181.013 501.139 179.473 504.334 176.392C507.529 173.311 509.298 169.146 509.64 163.897H491.582V155.852H519.311V160.388C519.311 166.892 518.056 172.341 515.546 176.734C513.092 181.127 509.726 184.437 505.447 186.662C501.225 188.887 496.489 190 491.24 190Z" fill="black"/>
<path d="M403.09 189.144L425.171 125.813H438.008L460.174 189.144H449.648L444.77 174.938H418.495L413.617 189.144H403.09ZM421.491 166.037H441.774L431.675 136.511L421.491 166.037Z" fill="black"/>
<path d="M356.543 189.144V125.813H366.556V180.415H398.564V189.144H356.543Z" fill="black"/>
<path d="M306.915 189.144V125.813H316.928V180.415H348.936V189.144H306.915Z" fill="black"/>
<path d="M288.21 189.144V125.813H298.223V189.144H288.21Z" fill="black"/>
<path d="M248.778 189.144L226.697 125.813H237.224L255.282 178.446L273.254 125.813H283.781L261.615 189.144H248.778Z" fill="black"/>
<path d="M145.761 189.144V125.813H159.026L176.228 161.843L193.687 125.813H206.782V189.144H196.94V140.704L180.935 173.397H171.607L155.603 140.533V189.144H145.761Z" fill="black"/>
<path d="M93.8898 189.144V166.893L71.7238 125.813H82.6784L98.8537 156.708L115.114 125.813H126.069L103.818 166.893V189.144H93.8898Z" fill="black"/>
<path d="M25.543 189.144V125.813H51.5603C55.6112 125.813 59.0631 126.554 61.9159 128.038C64.8257 129.464 67.0223 131.376 68.5058 133.772C70.0463 136.168 70.8165 138.793 70.8165 141.646C70.8165 144.67 70.246 147.152 69.1049 149.091C68.0208 150.974 66.7656 152.429 65.3392 153.456C63.9128 154.483 62.6861 155.196 61.6591 155.596V156.109C63.0855 156.509 64.7116 157.279 66.5374 158.42C68.3631 159.504 69.9322 161.102 71.2445 163.213C72.6138 165.267 73.2985 167.948 73.2985 171.257C73.2985 174.224 72.5853 177.077 71.1589 179.816C69.7325 182.554 67.4503 184.808 64.3122 186.577C61.2312 188.289 57.1803 189.144 52.1594 189.144H25.543ZM50.6189 134.371H35.5562V152.686H50.6189C54.2704 152.686 56.9235 151.744 58.5781 149.862C60.2327 147.979 61.06 145.868 61.06 143.528C61.06 141.189 60.2327 139.078 58.5781 137.195C56.9235 135.312 54.2704 134.371 50.6189 134.371ZM51.3891 160.56H35.5562V180.586H51.3891C54.1849 180.586 56.4671 180.13 58.2358 179.217C60.0045 178.247 61.2883 176.992 62.087 175.451C62.8858 173.911 63.2852 172.284 63.2852 170.573C63.2852 168.861 62.8858 167.264 62.087 165.78C61.2883 164.24 60.0045 162.984 58.2358 162.014C56.4671 161.045 54.1849 160.56 51.3891 160.56Z" fill="black"/>
<path d="M538.169 94.1865V16.0564H590.537V28.515H552.528V48.3642H585.786V60.5061H552.528V81.7279H591.065V94.1865H538.169Z" fill="black"/>
<path d="M469.83 94.1865V16.0564H500.237C505.868 16.0564 510.655 17.1122 514.597 19.2238C518.609 21.2651 521.635 24.0806 523.677 27.6703C525.788 31.1897 526.844 35.1666 526.844 39.601C526.844 44.5985 525.507 49.0681 522.832 53.0098C520.157 56.8811 516.286 59.6966 511.218 61.4563L529.167 94.1865H513.224L496.542 63.1456H484.189V94.1865H469.83ZM500.026 28.515H484.189V51.4261H500.026C504.038 51.4261 507.1 50.2999 509.212 48.0475C511.323 45.7247 512.379 43.0148 512.379 39.9177C512.379 36.8207 511.323 34.146 509.212 31.8936C507.1 29.6412 504.038 28.515 500.026 28.515Z" fill="black"/>
<path d="M428.717 95.2423C422.945 95.2423 417.701 94.1513 412.985 91.9693C408.269 89.7169 404.539 86.3383 401.794 81.8335C399.049 77.3287 397.676 71.6625 397.676 64.8349V16.0564H412.035V64.8349C412.035 69.6212 413.372 73.6333 416.047 76.8712C418.792 80.109 423.016 81.7279 428.717 81.7279C434.489 81.7279 438.747 80.109 441.492 76.8712C444.237 73.6333 445.61 69.6212 445.61 64.8349V16.0564H459.863V64.8349C459.863 71.6625 458.491 77.3287 455.746 81.8335C453.001 86.3383 449.27 89.7169 444.554 91.9693C439.909 94.1513 434.629 95.2423 428.717 95.2423Z" fill="black"/>
<path d="M352.611 94.1865V28.515H328.539V16.0564H391.043V28.515H366.97V94.1865H352.611Z" fill="black"/>
<path d="M263.484 94.1865L290.407 16.0564H309.095L336.124 94.1865H321.131L315.535 77.7158H284.072L278.476 94.1865H263.484ZM288.19 65.2572H311.418L299.804 30.7322L288.19 65.2572Z" fill="black"/>
<path d="M194.205 94.1865V16.0564H207.297L243.195 69.0582V16.0564H257.448V94.1865H244.356L208.459 42.1349V94.1865H194.205Z" fill="black"/>
<path d="M152.175 95.2422C145.629 95.2422 139.928 94.116 135.071 91.8636C130.214 89.6112 126.167 86.5845 122.929 82.7836C119.762 78.9123 117.368 74.6187 115.75 69.9027C114.201 65.1164 113.427 60.2244 113.427 55.2269C113.427 50.2294 114.201 45.3375 115.75 40.5511C117.368 35.7648 119.797 31.4712 123.035 27.6702C126.272 23.7989 130.355 20.7371 135.282 18.4847C140.209 16.1619 145.946 15.0005 152.492 15.0005C157.63 15.0005 162.029 15.6692 165.689 17.0065C169.42 18.2735 172.517 19.9276 174.981 21.9689C177.515 24.0101 179.521 26.1921 180.999 28.5149C182.547 30.7673 183.709 32.9141 184.483 34.9553C185.257 36.9966 185.785 38.6859 186.067 40.0232C186.348 41.2902 186.489 41.9237 186.489 41.9237H172.13C172.13 41.9237 171.989 41.4662 171.708 40.5511C171.496 39.5657 171.004 38.3691 170.229 36.9614C169.455 35.5536 168.329 34.1459 166.851 32.7381C165.443 31.3304 163.578 30.169 161.255 29.254C158.932 28.2685 156.046 27.7758 152.597 27.7758C148.445 27.7758 144.82 28.5501 141.723 30.0986C138.696 31.6471 136.162 33.7236 134.121 36.3279C132.079 38.9322 130.566 41.8533 129.581 45.0911C128.595 48.329 128.103 51.6372 128.103 55.0158C128.103 59.591 129.018 63.9902 130.848 68.2134C132.678 72.4367 135.388 75.8857 138.977 78.5604C142.638 81.2351 147.142 82.5725 152.492 82.5725C158.686 82.5725 163.578 80.8832 167.168 77.5046C170.828 74.126 172.904 69.6212 173.397 63.9902H152.069V52.5874H187.334V58.3944C187.334 66.4889 185.785 73.2813 182.688 78.7715C179.591 84.1914 175.368 88.309 170.018 91.1245C164.739 93.8697 158.791 95.2422 152.175 95.2422Z" fill="black"/>
<path d="M91.9648 94.1865V16.0564H106.324V94.1865H91.9648Z" fill="black"/>
<path d="M56.1464 95.2422C51.2897 95.2422 47.1369 94.6439 43.6879 93.4473C40.2389 92.2507 37.353 90.7022 35.0302 88.8018C32.7778 86.9013 30.9829 84.8952 29.6456 82.7836C28.3082 80.6016 27.2876 78.5604 26.5837 76.6599C25.9502 74.7595 25.5279 73.2109 25.3167 72.0143C25.1056 70.8178 25 70.2195 25 70.2195H39.5702C39.5702 70.2195 39.6406 70.6418 39.7814 71.4864C39.9925 72.3311 40.4149 73.4221 41.0483 74.7595C41.6818 76.0264 42.5969 77.2934 43.7935 78.5604C45.0604 79.8274 46.7145 80.9184 48.7558 81.8334C50.8674 82.678 53.4717 83.1004 56.5688 83.1004C61.3551 83.1004 64.9801 82.0446 67.4436 79.9329C69.9776 77.7509 71.2446 75.0762 71.2446 71.9088C71.2446 69.234 70.2943 67.1224 68.3939 65.5739C66.4934 63.955 63.6779 62.7584 59.9474 61.9841L49.6004 59.7669C45.5883 58.9223 41.8226 57.6553 38.3032 55.966C34.8542 54.2767 32.0739 51.9891 29.9623 49.1032C27.8507 46.2173 26.7949 42.522 26.7949 38.0172C26.7949 33.3012 27.9563 29.2188 30.2791 25.7698C32.6722 22.3208 35.9452 19.6813 40.0981 17.8512C44.251 15.9507 49.1077 15.0005 54.6683 15.0005C59.9474 15.0005 64.3114 15.7748 67.7604 17.3233C71.2094 18.8718 73.9545 20.7723 75.9957 23.0247C78.1073 25.2771 79.6559 27.5295 80.6413 29.7819C81.6267 32.0343 82.2602 33.9347 82.5417 35.4832C82.8937 37.0318 83.0696 37.806 83.0696 37.806H69.0274C69.0274 37.806 68.8866 37.2781 68.605 36.2223C68.3235 35.0961 67.69 33.8291 66.7046 32.4214C65.7191 31.0136 64.241 29.7819 62.2702 28.726C60.2993 27.5998 57.6598 27.0367 54.3516 27.0367C49.6356 27.0367 46.1866 28.0926 44.0046 30.2042C41.893 32.3158 40.8372 34.6034 40.8372 37.067C40.8372 39.6009 41.8226 41.5718 43.7935 42.9795C45.7643 44.3873 48.4038 45.4783 51.712 46.2525L62.7981 48.5753C66.9509 49.4904 70.7518 50.8629 74.2008 52.693C77.6498 54.5231 80.3949 56.9514 82.4362 59.9781C84.4774 62.9344 85.498 66.6297 85.498 71.0641C85.498 75.5689 84.3718 79.6514 82.1194 83.3115C79.867 86.9717 76.5588 89.8928 72.1948 92.0748C67.8308 94.1864 62.4813 95.2422 56.1464 95.2422Z" fill="black"/>
</svg>
