<svg width="50" height="50" viewBox="0 0 50 50" fill="none" xmlns="http://www.w3.org/2000/svg">
<path d="M35.0453 10.6966C33.518 8.94567 32.5998 6.66256 32.5998 4.16663H30.686M35.0453 10.6966C36.4372 12.2929 38.3217 13.4539 40.4676 13.9085C41.1345 14.0536 41.8305 14.1311 42.5554 14.1311V21.2898C38.8437 21.2898 35.4026 20.1 32.5995 18.0877V32.6473C32.5995 39.9223 26.6838 45.8333 19.4247 45.8333C15.6259 45.8333 12.1945 44.2079 9.78763 41.625C7.59346 39.2645 6.24988 36.1107 6.24988 32.6473C6.24988 25.4787 11.9915 19.6356 19.1057 19.4808M35.0453 10.6966C35.0081 10.6724 34.971 10.6479 34.9341 10.6232M14.5531 36.1494C13.8379 35.1626 13.4126 33.9534 13.4126 32.6377C13.4126 29.3195 16.1094 26.6203 19.4249 26.6203C20.0435 26.6203 20.6427 26.7267 21.2034 26.9009V19.5873C20.6233 19.5098 20.0338 19.4614 19.4249 19.4614C19.3185 19.4614 18.462 19.5184 18.3557 19.5184M30.6759 4.16663H25.4369L25.4272 32.8698C25.3113 36.0816 22.6627 38.6647 19.4247 38.6647C17.4141 38.6647 15.6452 37.6682 14.5433 36.1591" stroke="white" stroke-width="1.5" stroke-linejoin="round"/>
</svg>
